<?xml version="1.0" encoding="utf-8"?>
<!-- Generator: Adobe Illustrator 25.2.1, SVG Export Plug-In . SVG Version: 6.00 Build 0)  -->
<svg version="1.1" id="Layer_1" xmlns="http://www.w3.org/2000/svg" xmlns:xlink="http://www.w3.org/1999/xlink" x="0px" y="0px"
	 viewBox="0 0 384 384" style="enable-background:new 0 0 384 384;" xml:space="preserve">
<style type="text/css">
	.st0{fill:#004B7F;}
</style>
<g>
	<path class="st0" d="M179.6,0c8,0,16,0,24,0c0.5,0.2,0.9,0.4,1.4,0.5c8.4,1.1,16.9,1.7,25.2,3.4C279,13.7,318.4,38.5,347.5,79
		c29.1,40.6,39.8,86.2,34.3,135.6c-4.6,41.3-20.5,77.9-49.3,107.9c-52.4,54.4-116.7,72-189.5,54.4C68.7,359,15.7,300,2.9,225
		c-1.2-7.1-1.9-14.3-2.9-21.4c0-8,0-16,0-24c0.2-1.2,0.5-2.4,0.6-3.6c1.3-8.7,2.1-17.6,3.9-26.2C19.9,74.7,81.9,15.2,157.5,3
		C164.8,1.8,172.3,1,179.6,0z M353.3,191.6c0-90.6-71.1-161.7-161.7-161.7C101,29.9,30,101,29.9,191.6
		c0,90.6,71.1,161.7,161.7,161.7C282.2,353.3,353.3,282.2,353.3,191.6z"/>
	<path class="st0" d="M206.6,176.7c15.4,0,30.2-0.1,45.1,0c7.2,0,12.9,4.8,14.5,11.8c1.4,6.3-1.5,13.1-7.4,16.1
		c-2.3,1.1-5,1.9-7.5,1.9c-19.7,0.2-39.4,0.1-59.1,0.1c-9,0-15.4-6.4-15.4-15.3c-0.1-19.7-0.1-39.4,0-59.1c0-8.8,6.5-15.4,14.9-15.4
		c8.4,0,14.9,6.6,15,15.4c0.1,13.3,0,26.7,0,40C206.6,173.5,206.6,174.9,206.6,176.7z"/>
	<path class="st0" d="M176.7,74.6c0.1-8.2,6.9-14.9,15.2-14.8c8.2,0.1,14.9,6.9,14.8,15.2c-0.1,8.2-6.9,14.9-15.2,14.8
		C183.2,89.7,176.6,82.9,176.7,74.6z"/>
	<path class="st0" d="M89.8,191.7c0,8.2-6.8,14.9-15,14.9c-8.2,0-14.9-6.8-14.9-15c0-8.2,6.8-14.9,15-14.9
		C83.1,176.7,89.8,183.4,89.8,191.7z"/>
	<path class="st0" d="M323.4,191.6c0,8.2-6.8,14.9-15,14.9c-8.2,0-14.9-6.8-14.9-15c0-8.2,6.7-14.9,15-14.9
		C316.7,176.7,323.4,183.4,323.4,191.6z"/>
	<path class="st0" d="M206.6,308.4c0,8.2-6.7,15-14.9,15c-8.2,0-15-6.7-15-14.9c0-8.2,6.7-15,14.9-15
		C199.8,293.4,206.6,300.1,206.6,308.4z"/>
</g>
</svg>
