<?xml version="1.0" encoding="utf-8"?>
<!-- Generator: Adobe Illustrator 25.2.1, SVG Export Plug-In . SVG Version: 6.00 Build 0)  -->
<svg version="1.1" id="Layer_1" xmlns="http://www.w3.org/2000/svg" xmlns:xlink="http://www.w3.org/1999/xlink" x="0px" y="0px"
	 viewBox="0 0 384 384" style="enable-background:new 0 0 384 384;" xml:space="preserve">
<style type="text/css">
	.st0{fill:#004B7F;}
</style>
<g>
	<path class="st0" d="M82.3,384c-3.8-0.7-7.5-1.4-11.3-2.2c-40.4-8.9-70.1-45-70.2-86.3C0.6,226.8,0.5,158,0.8,89.3
		C1,40.8,40.9,1.1,89.4,0.7c27.9-0.2,55.9-0.2,83.8,0c48.5,0.4,88.1,40,88.7,88.5c0.2,13.7,0.1,27.4,0,41.2c0,9.7-6,16.1-14.9,16.2
		c-9,0-15-6.5-15-16.4c0-13,0-26,0-38.9c-0.1-34.3-26.4-60.6-60.8-60.7c-26.6,0-53.1,0-79.7,0C57,30.7,30.7,57,30.7,91.6
		c0,67.2,0,134.5,0,201.7c0,34.3,26.4,60.7,60.7,60.7c26.4,0.1,52.9,0.2,79.3-0.1c6.4-0.1,12.9-1.2,19.1-2.7
		c9.5-2.2,17.4,1.6,19.9,10.2c2.3,8.3-2.3,16.2-11.6,18.7c-5.8,1.6-11.9,2.6-17.8,3.9C147.7,384,115,384,82.3,384z"/>
	<path class="st0" d="M384,216.3c-4.2,19.8-17.4,31.7-35.1,39.3c-6.2,2.7-12.9,4.7-19.6,5.9c-23.2,4.3-45.7,2.1-66.8-9.3
		c-5.3-2.9-10.4-6.6-14.7-10.8c-18.8-18.4-18-45.1,1.6-62.7c11.7-10.5,25.9-15.7,41.2-18c22-3.4,43.6-1.6,63.8,8.4
		c15.4,7.7,26.3,19.2,29.1,36.9c0,0.2,0.3,0.4,0.4,0.6C384,209.8,384,213,384,216.3z M311.1,233.6c3.4-0.4,8.9-0.8,14.2-1.8
		c8.8-1.6,17-4.9,23.7-11.1c6.6-6.1,6.8-13.1,0.1-19c-3.7-3.2-8.1-6-12.6-7.8c-15.5-6.4-31.5-6.8-47.6-2.5
		c-7.3,1.9-14.1,5-19.7,10.2c-6.4,6-6.5,12.7-0.1,18.8c2,1.9,4.2,3.5,6.6,4.9C285.9,231.5,297.3,233.1,311.1,233.6z"/>
	<path class="st0" d="M298.7,384c-7.1-1.2-14.3-2.2-21.3-3.8c-13.1-3-25.3-8.3-36.3-16.1c-7.8-5.5-9.8-14.2-5-21.4
		c4.9-7.2,13.9-8.6,21.7-3.4c29.4,19.6,71.7,19.6,101.1,0c7.9-5.2,16.8-3.9,21.7,3.3c4.9,7.2,2.9,16.1-4.9,21.4
		c-16.3,11.2-34.4,17.2-54,19.2c-1.2,0.1-2.4,0.5-3.6,0.7C311.6,384,305.2,384,298.7,384z"/>
	<path class="st0" d="M147.9,265.7c-11.2,0-21.8,0-32.5,0c-16.5-0.1-29.1-13-28.5-29.5c0.3-7,2.9-13.1,7.9-18
		c14.4-14.1,28.9-28.2,43.5-42.2c6.4-6.2,15.6-6,21.4,0.1c5.8,6.1,5.7,15.2-0.7,21.5c-12,11.8-24.2,23.5-36.2,35.2
		c-0.9,0.8-1.7,1.7-3,3.2c9.3,0,17.8-0.1,26.4,0c4,0,8-0.1,11.9,0.6c11,2,18.4,8.6,21.7,19.3c3.3,10.6,0.8,20.1-6.9,27.9
		c-8.6,8.7-17.5,17.1-26.3,25.6c-5,4.9-10,9.8-15,14.6c-6.7,6.4-15.7,6.5-21.7,0.4c-6.1-6.2-5.7-15.4,1-22
		c12.1-11.8,24.3-23.6,36.5-35.5C147.4,266.6,147.4,266.5,147.9,265.7z"/>
	<path class="st0" d="M154.3,115.2c10.6,0,20.6-0.1,30.6,0c10.5,0.2,17.1,9.4,14.2,19.4c-1.8,6.4-7.3,10.4-14.7,10.5
		c-9.2,0.1-18.5,0-27.7,0c-26.7,0-53.4,0-80.1,0c-11.3,0-18.3-9.1-15.3-19.5c1.9-6.4,7.4-10.4,14.8-10.4c13.7-0.1,27.4-0.1,41.2,0.1
		c2.8,0,4.1-0.9,5.3-3.3c5.9-12.4,12-24.6,18.1-36.9c3.1-6.1,9.1-9.2,15.3-8.4c6.3,0.8,11.8,5.5,12.6,12c0.4,3.4-0.3,7.3-1.7,10.4
		C163.2,97.7,158.8,106.1,154.3,115.2z"/>
	<path class="st0" d="M308.4,323.4c-24.4-0.4-47.3-6.1-67.6-20.2c-7.4-5.1-9.3-13.6-5-20.6c4.5-7.4,13.8-9.5,21.2-4.5
		c11.2,7.7,23.6,12.4,37,14.1c23.2,3,45.2-0.3,65.1-13.7c7.7-5.2,16.6-3.8,21.5,3.3c5,7.2,3.1,16.1-4.7,21.5
		C355.6,317.4,332.8,323,308.4,323.4z"/>
</g>
</svg>
