<?xml version="1.0" encoding="utf-8"?>
<!-- Generator: Adobe Illustrator 25.2.1, SVG Export Plug-In . SVG Version: 6.00 Build 0)  -->
<svg version="1.1" id="Layer_1" xmlns="http://www.w3.org/2000/svg" xmlns:xlink="http://www.w3.org/1999/xlink" x="0px" y="0px"
	 viewBox="0 0 384 384" style="enable-background:new 0 0 384 384;" xml:space="preserve">
<style type="text/css">
	.st0{fill:#FFFFFF;}
</style>
<g>
	<path class="st0" d="M0,129.7c0-4,0-8,0-12c0.2-0.5,0.5-0.9,0.6-1.4c2.9-17.8,12.8-30.4,28.7-38.8C66.6,58,103.7,37.9,141.2,18.5
		c32.6-17,65.9-17.5,99-1.3C253.6,23.7,266.7,31,280,38c25.4,13.4,50.8,26.8,76.1,40.3c13.2,7,21.9,17.5,26,31.8
		c0.7,2.5,1.2,5.1,1.9,7.6c0,4,0,8,0,12c-0.2,0.3-0.5,0.6-0.5,1c-2.9,18.3-13.2,30.9-29.4,39.5c-36.4,19.3-72.6,38.9-108.9,58.4
		c-34,18.2-68.6,19.4-103,1.6c-39.1-20.3-77.8-41.4-116.5-62.4c-12.2-6.6-20-17.1-23.8-30.4C1.2,134.8,0.6,132.3,0,129.7z
		 M192.4,212.6c12.7,0.1,25-3.2,36.5-9.4c37.6-20.2,75.2-40.4,112.8-60.5c7.7-4.1,12.2-10.3,12.1-19.2c0-8.7-4.4-14.8-12.1-18.8
		c-38.1-20.1-76-40.5-114.2-60.3c-23.9-12.4-48.3-12-72.2,0.5c-37.7,19.7-75.2,39.8-112.9,59.6c-7.7,4.1-12.4,10.1-12.4,19
		c-0.1,9,4.6,15.2,12.4,19.4c37.4,20,74.8,40.1,112.2,60.2C166.3,209.2,178.7,212.6,192.4,212.6z"/>
	<path class="st0" d="M384,216.7c-2.1,5.9-6.6,9.2-12,12.1c-42.3,22.5-84.5,45.3-126.7,67.9c-35.4,18.9-70.9,19-106.3,0.1
		c-42.3-22.5-84.6-45-127-67.3c-5.4-2.8-9.8-6.2-12-12.1c0-2.3,0-4.5,0-6.8c2.1-5.3,5.3-9.6,11.2-11.1c4.6-1.2,8.8,0.1,12.9,2.3
		c42.8,22.8,85.8,45.4,128.6,68.3c26.4,14.2,52.6,14.1,79-0.2c42.1-22.8,84.4-45.3,126.7-68c12.4-6.7,19.6-4.4,25.7,7.9
		C384,212.2,384,214.5,384,216.7z"/>
	<path class="st0" d="M0,278.2c2.1-5.3,5.3-9.6,11.2-11.1c4.6-1.2,8.8,0.1,12.9,2.3c42.9,22.8,85.8,45.4,128.6,68.3
		c26.5,14.2,52.6,14.1,79-0.1c42.2-22.8,84.4-45.3,126.6-68c12.4-6.7,19.6-4.4,25.7,7.9c0,2.3,0,4.5,0,6.8c-2.1,5.9-6.6,9.2-12,12.1
		c-42.4,22.6-84.7,45.4-127,68.1c-35.3,18.8-70.7,18.7-106,0c-42.3-22.5-84.6-45-127-67.3c-5.4-2.8-9.8-6.2-12-12.1
		C0,282.7,0,280.5,0,278.2z"/>
</g>
</svg>
