<?xml version="1.0" encoding="utf-8"?>
<!-- Generator: Adobe Illustrator 25.2.1, SVG Export Plug-In . SVG Version: 6.00 Build 0)  -->
<svg version="1.1" id="Layer_1" xmlns="http://www.w3.org/2000/svg" xmlns:xlink="http://www.w3.org/1999/xlink" x="0px" y="0px"
	 viewBox="0 0 384 384" style="enable-background:new 0 0 384 384;" xml:space="preserve">
<style type="text/css">
	.st0{fill:#004B7F;}
</style>
<g>
	<path class="st0" d="M0,185.6c0.7-6.8,1.2-13.6,2.1-20.4C8.7,118.6,30.2,80,65.5,49.1c31-27.1,67.2-43,108.2-47.3
		c34.4-3.6,67.3,2.2,98.6,17c8,3.8,11.2,12.4,7.6,20c-3.6,7.6-12.2,10.7-20.3,7c-22-10.4-45.1-15.8-69.5-15
		c-49.4,1.7-90.3,21.9-122.5,59.1C46.2,114.3,33.6,143,31,175.4c-5.5,66.7,20.7,118.2,76.9,154.2c28.7,18.4,60.6,26.3,94.7,24.5
		c20.4-1.1,39.8-6.3,58.1-15.4c3.8-1.9,7.6-3.2,11.8-2.2c6.4,1.5,11,6.5,11.8,13c0.8,6.2-2.4,12.5-8.7,15.2
		c-10.9,4.5-21.8,9.4-33.2,12.4c-11.8,3.2-24.2,4.4-36.4,6.4c-1.1,0.2-2.2,0.4-3.3,0.6c-8.7,0-17.5,0-26.2,0
		c-0.8-0.2-1.6-0.5-2.5-0.6c-6.7-0.9-13.4-1.5-20-2.8c-41.6-8.5-76.2-29.1-104.6-60.4C23.9,291.7,7.5,258.5,2,220.2
		c-0.9-6-1.4-12.1-2-18.1C0,196.6,0,191.1,0,185.6z"/>
	<path class="st0" d="M337.3,67.7c60.5,67.2,60.7,182.2-0.1,249.7c3.2,3,6.6,6,9.7,9.1c10.3,10.2,20.4,20.5,30.7,30.7
		c4.4,4.3,6.1,9.4,4.5,15.3c-2.8,10.4-15.2,14.4-23.7,7.7c-1-0.8-1.9-1.7-2.7-2.5c-47.4-47.4-94.8-94.7-142.1-142.1
		c-22.2-22.3-24.4-55.9-5.4-80c1.8-2.2,3.8-4.3,5.8-6.4c47.3-47.3,94.6-94.6,141.8-141.9c4.3-4.3,9-6.8,15.1-5.5
		c5.7,1.2,9.6,4.7,11.3,10.3c1.6,5.7,0.3,10.9-3.9,15.1c-11.8,11.8-23.6,23.7-35.5,35.5C341,64.4,339.2,65.9,337.3,67.7z
		 M315.9,89.7c-0.9,0.8-1.8,1.6-2.7,2.5c-26,26-52,52-78,78c-13.2,13.2-13.2,31.3,0,44.5c26,26,52,52,78,78c0.9,0.9,1.9,1.8,2.9,2.7
		C368.6,234.6,362,140.1,315.9,89.7z"/>
</g>
</svg>
