<?xml version="1.0" encoding="utf-8"?>
<!-- Generator: Adobe Illustrator 25.2.1, SVG Export Plug-In . SVG Version: 6.00 Build 0)  -->
<svg version="1.1" id="Layer_1" xmlns="http://www.w3.org/2000/svg" xmlns:xlink="http://www.w3.org/1999/xlink" x="0px" y="0px"
	 viewBox="0 0 384 384" style="enable-background:new 0 0 384 384;" xml:space="preserve">
<style type="text/css">
	.st0{fill:#004B7F;}
</style>
<g>
	<path class="st0" d="M0,148.9c1.2-4.8,2.1-9.7,3.7-14.4C13,108.5,37.4,91.3,65,91.3c5.6,0,11.2,0,16.8,0c10.4,0,16.9,5.8,16.9,14.9
		c0.1,9.2-6.5,15-17.1,15.1c-7.2,0-14.5-0.4-21.7,0.3C43.4,123.2,26.7,140,30.7,164c7.6,46.1,14.2,92.4,21,138.6
		c4.3,29.1,28.8,51.2,58.3,51.3c54.5,0.2,109.1,0.2,163.6,0c29.6-0.1,53.9-22.4,58.2-51.8c6.7-46,13.7-92,20.7-137.9
		c3.1-20-6.5-36.9-24.5-41.7c-4.6-1.2-9.6-1-14.4-1.3c-4.6-0.2-9.2,0.1-13.8-0.1c-8.1-0.4-13.9-6.1-14.3-14
		c-0.5-8,4.8-15.2,12.9-15.6c12-0.6,24.2-1.5,36.1,1.5c32.5,8.1,53.3,40.5,48,73.6c-5.5,34.1-10.3,68.3-15.5,102.4
		c-2.4,15.8-4.1,31.7-7.6,47.2c-8.1,35.2-40.4,63.1-76,67c-0.8,0.1-1.6,0.5-2.4,0.7c-59.4,0-118.8,0-178.2,0
		c-0.7-0.2-1.4-0.6-2.1-0.7c-37.4-5.9-62.7-26.6-75-62.4c-3.2-9.2-4-19.2-5.5-28.9c-5.2-34.1-10.3-68.3-15.4-102.4
		c-1.4-9.3-3-18.7-4.5-28C0,157.4,0,153.2,0,148.9z"/>
	<path class="st0" d="M192.6,149.3c-35.1-0.3-64.1-29.1-63.8-63.8c0.1-12.1,4.6-23,10.8-33c8.4-13.5,17.3-26.8,27.1-39.4
		c12.4-16,36.5-17,49.7-1.9C230.2,27,242,44.3,250.8,63.5c16.1,35.1-8,76-44.5,83.8C201.8,148.3,197.2,148.7,192.6,149.3z
		 M192.4,119c22.6,0.5,42.3-25,29.6-46.2c-7.3-12.2-15-24.1-23.1-35.8c-6.1-8.8-6.6-8.6-13.1,0c-9.2,12.2-18.2,24.4-24.2,38.5
		c-1.7,3.9-2.9,8.4-2.6,12.6C160.1,105.5,175,119,192.4,119z"/>
	<path class="st0" d="M270,251.5c-10.8-0.3-20.3-3.8-28.4-11c-9.4-8.3-12.1-8.4-21.5,0c-16.4,14.6-41,14.5-57.3-0.2
		c-8-7.2-13-7.2-21.1,0.1c-16.4,14.8-41.1,14.7-57.6-0.1c-2.6-2.3-5.3-4.5-8.1-6.5c-6.3-4.6-8.1-12.9-4.2-19.7
		c3.9-6.7,12.2-9.6,19.1-5.9c4.3,2.3,8.3,5.6,12,8.8c6.8,5.9,13.3,6.2,20,0.3c18.4-16.2,40.9-16.2,59,0.1c6.3,5.7,13.1,5.8,19.4,0
		c6.6-6.2,14.1-10.7,23.1-12.2c13.9-2.3,25.5,2.3,35.6,11.7c6.9,6.4,13.5,6.4,20.5,0.1c0.7-0.7,1.4-1.5,2.2-2
		c3.1-2.2,6.1-4.8,9.5-6.5c7.2-3.8,15.8-1,19.7,6c3.9,6.9,1.8,15.2-4.9,19.8c-2.7,1.9-5.4,4-7.9,6.2
		C290.7,247.6,281,251.3,270,251.5z"/>
</g>
</svg>
