<?xml version="1.0" encoding="utf-8"?>
<!-- Generator: Adobe Illustrator 25.2.1, SVG Export Plug-In . SVG Version: 6.00 Build 0)  -->
<svg version="1.1" id="Layer_1" xmlns="http://www.w3.org/2000/svg" xmlns:xlink="http://www.w3.org/1999/xlink" x="0px" y="0px"
	 viewBox="0 0 384 384" style="enable-background:new 0 0 384 384;" xml:space="preserve">
<style type="text/css">
	.st0{fill:#FFFFFF;}
</style>
<g>
	<path class="st0" d="M18,0c9,3,12.7,9.4,12,18.7c-0.3,4.4,0,8.9,0,13.9c10.6-3.7,21.2-2.5,31.6-2.5c23.7-0.1,47.5-0.2,71.2,0
		c61.6,0.5,114.3,41.8,129.9,101.4c2.9,11.2,4.3,22.6,4.3,34.1c0,9.5,0,19,0,28.5c0,9.7,6.3,15.9,15.9,16c8.4,0,16.7,0,25.1,0
		c9.2,0,15.9,6.3,15.9,14.9c0.1,8.6-6.6,15.1-15.7,15.1c-11.1-0.1-22.3,0.6-33.3-0.8c-21.6-2.7-37.7-21.8-38-43.6
		c-0.2-13.9,0.4-27.8-0.8-41.6c-3.8-45.9-41-85.4-86.4-92.4c-6.3-1-12.7-1.5-19-1.5c-28-0.2-56-0.1-84-0.1C36.1,60,30,66,30,76.6
		c0,17,0,34,0,51c0,10.2,6.2,16.3,16.3,16.4c17.7,0,35.5,0,53.2,0c28.1,0,47.3,19.2,47.4,47.2c0,13-0.3,26,0.8,39
		c3.4,40.8,34.4,78,73.9,89.3c10.5,3,21.2,4.5,32.2,4.5c18.4-0.1,36.7-0.1,55.1,0c7.3,0,12.9,4.7,14.6,11.6
		c1.6,6.4-1.5,13.4-7.5,16.4c-2.3,1.1-5,1.8-7.5,1.8c-20,0.1-40,0.3-60,0C185.4,353,129.6,305,119.3,242.7
		c-1.4-8.3-1.8-16.9-2.2-25.3c-0.4-9.1,0-18.2-0.1-27.4c0-9.7-6.3-16-15.9-16c-13.6,0-27.2,0.1-40.9,0c-9.9-0.1-20,1.1-30.2-2.6
		c0,5.5,0,10.4,0,15.4c0,9.4-4.5,15.6-12.4,17.1c-7.4,1.4-13.7-2.7-17.2-11.1c-0.1-0.2-0.2-0.4-0.4-0.7C0,132,0,72,0,12
		C1.9,5.9,5.9,1.9,12,0C14,0,16,0,18,0z"/>
	<path class="st0" d="M366,384c-9-3-12.1-9.4-12.1-18.7c0.2-56,0.1-112.1,0.1-168.1c0-2.1,0.1-4.3,0.6-6.3
		c1.6-6.1,6.8-10.3,12.9-10.9c6.2-0.6,12.2,2.8,15,8.5c0.5,1.1,1,2.3,1.5,3.4c0,60,0,120,0,180c-1.9,6.1-5.9,10.1-12,12
		C370,384,368,384,366,384z"/>
</g>
</svg>
