<?xml version="1.0" encoding="utf-8"?>
<!-- Generator: Adobe Illustrator 25.2.1, SVG Export Plug-In . SVG Version: 6.00 Build 0)  -->
<svg version="1.1" id="Layer_1" xmlns="http://www.w3.org/2000/svg" xmlns:xlink="http://www.w3.org/1999/xlink" x="0px" y="0px"
	 viewBox="0 0 384 384" style="enable-background:new 0 0 384 384;" xml:space="preserve">
<style type="text/css">
	.st0{fill:#FFFFFF;}
</style>
<g>
	<path class="st0" d="M199.1,0c7.6,1.7,15.5,2.7,22.9,5.1c44,14.1,73.3,57.5,69.8,102.6c-3.8,47.9-38.2,85.9-84.7,93.5
		c-57.4,9.3-110.7-31.7-116.7-89.7C84.8,56.3,124.9,6.5,179.8,0.7c1-0.1,1.9-0.4,2.9-0.7C188.1,0,193.6,0,199.1,0z M191.1,30
		c-39.2-0.1-71.2,31.9-71.3,71.2c0,39.1,31.7,71.2,70.7,71.3c39.3,0.1,71.4-31.7,71.5-71C262.1,62.2,230.2,30.1,191.1,30z"/>
	<path class="st0" d="M321.9,384c-8.6-2.9-12-8.9-12.1-17.9c-0.7-49.8-38.8-94.5-88-101.8c-23.6-3.5-47.5-3.9-70.8,2.7
		c-40.4,11.4-71.6,49-75.5,90.9c-0.2,2.6-0.7,5.2-0.5,7.8c0.5,9.2-3.3,15.3-12.1,18.3c-2,0-4,0-6,0c-9.8-4.3-12.1-7.9-11.9-19.1
		c1.1-60.7,45.9-116.3,105.3-128.6c33.3-6.9,67.2-7.7,99.6,4.5c49.4,18.6,78.6,55,88.3,106.9c1.1,5.7,1.4,11.7,1.6,17.5
		c0.4,10.8-2.1,14.4-11.9,18.7C325.9,384,323.9,384,321.9,384z"/>
</g>
</svg>
