<?xml version="1.0" encoding="utf-8"?>
<!-- Generator: Adobe Illustrator 25.2.1, SVG Export Plug-In . SVG Version: 6.00 Build 0)  -->
<svg version="1.1" id="Layer_1" xmlns="http://www.w3.org/2000/svg" xmlns:xlink="http://www.w3.org/1999/xlink" x="0px" y="0px"
	 viewBox="0 0 384 384" style="enable-background:new 0 0 384 384;" xml:space="preserve">
<style type="text/css">
	.st0{fill:#004B7F;}
</style>
<g>
	<path class="st0" d="M66.6,384c-7.4-2-14.7-4.3-21-9.1c-25.1-19-23.5-57.6,3.5-73.9c6.3-3.8,8.6-8.7,8.6-15.6
		c-0.1-25.2-0.1-50.4,0-75.6c0.1-17.8,5-34.2,14.9-49c2-3,4.3-5.8,6.8-8.4c14.7-14.8,29.4-29.5,44.2-44.2c1-1,2.2-1.7,3.4-2.6
		c-9.7-10.5-19-20.2-28-30.2c-7.6-8.4-11.5-18.4-11.4-29.7c0.3-17.7,8.1-31.3,23.7-39.6c15.6-8.3,31.3-7.5,46.1,2.3
		c8.4,5.6,16.3,12,24.3,18c7.5,5.6,13.6,5.7,21.1,0.1c7.5-5.6,14.9-11.3,22.5-16.8c26.8-19.4,63.4-5.8,70.7,26.4
		c3.2,14.1,0.1,27.3-9.4,38.1c-12.5,14.2-25.6,27.9-38.7,41.7c-5.9,6.2-15.2,6.1-21.2,0.3c-5.9-5.8-6.1-14.8-0.1-21.2
		c11.8-12.7,23.6-25.4,35.5-38c3.8-4.1,5.9-8.7,4.7-14.3c-2.3-10.8-14.3-15.5-23.4-9.1c-7.7,5.5-15.2,11.3-22.8,17
		c-18,13.5-38.8,13.5-56.7,0c-7.2-5.4-14.4-10.8-21.6-16.2c-7.3-5.4-15.7-4.9-21.2,1.3c-5.3,6-5,14.4,1.1,20.9
		c11.5,12.3,23,24.6,34.5,36.9c7.7,8.2,7.5,16.2-0.5,24.2c-17.1,17.1-34,34.5-51.4,51.3c-12,11.6-17.3,25.7-17.3,41.9
		c-0.1,25,0,49.9,0,74.9c0,17.6-6.8,31.4-22.4,40.4c-6.3,3.7-8.9,10.4-7,17c1.9,6.7,7.5,10.9,14.8,10.9c79.6,0,159.2,0,238.8,0
		c7.2,0,12.8-4.3,14.7-11.1c1.8-6.5-0.7-13.1-6.8-16.7c-16-9.2-22.6-23.4-22.6-41.4c0.1-23.1-0.2-46.2,0.1-69.2
		c0.2-15.6-3.4-29.8-12.8-42.4c-4.3-5.7-3.9-12.7,0.4-18c4-5,11-7.2,16.8-4.6c2.7,1.2,5.4,3.3,7.2,5.6c11.8,15.4,18,33,18.1,52.4
		c0.2,25.6,0.1,51.2,0,76.7c0,7,2.3,11.9,8.6,15.6c16,9.4,23.8,27.8,20.6,46.2c-3.1,17.8-17.4,32.2-35.8,36
		c-0.8,0.2-1.6,0.5-2.4,0.8C234.4,384,150.5,384,66.6,384z"/>
	<path class="st0" d="M177.5,299.7c-7.5-3-14.5-5.3-21-8.5c-8.5-4.2-11.3-13.1-7.1-20.7c4.1-7.6,12.9-9.8,21.3-5.5
		c13.2,6.8,26.8,7.1,40.5,1.5c3.1-1.3,6.1-3.5,8.6-5.8c3.7-3.6,3.6-7,0.1-10.8c-5.1-5.4-11.8-7.9-19-8.8c-8-1-16.2-1.1-24.1-2.4
		c-12-2-22.9-7-31.7-15.6c-17-16.5-16.4-40.6,1.2-56.4c7.9-7.1,17.2-11.4,27.4-13.9c1.2-0.3,2.4-0.6,3.9-1c0-5.1,0-10.2,0-15.3
		c0.1-9.2,6.3-15.8,14.8-15.9c8.7-0.1,15,6.6,15.1,16c0,5,0,10,0,15.1c2.3,0.6,4.5,1,6.5,1.8c5.3,2.1,10.8,4,15.8,6.7
		c7.4,4,9.7,12.8,5.9,20c-3.9,7.3-12.8,10.1-20.3,6c-10-5.4-20.5-6.8-31.5-5c-6.1,1-11.9,2.9-16.7,7c-5.9,4.9-6,9.7,0,14.5
		c7.1,5.7,15.6,7.6,24.5,7.7c11.5,0.1,22.7,1.8,33,7c5.2,2.6,10.3,5.8,14.6,9.7c17.8,16.2,17.7,40.6-0.1,56.9
		c-7.9,7.2-17.3,11.6-27.7,14.1c-1.2,0.3-2.4,0.6-3.9,1c0,5.1,0,10.2,0,15.3c-0.1,9.2-6.3,15.8-14.8,15.9c-8.7,0.1-15-6.7-15.1-16
		C177.4,309.1,177.5,304.1,177.5,299.7z"/>
</g>
</svg>
