<?xml version="1.0" encoding="utf-8"?>
<!-- Generator: Adobe Illustrator 25.2.1, SVG Export Plug-In . SVG Version: 6.00 Build 0)  -->
<svg version="1.1" id="Layer_1" xmlns="http://www.w3.org/2000/svg" xmlns:xlink="http://www.w3.org/1999/xlink" x="0px" y="0px"
	 viewBox="0 0 384 384" style="enable-background:new 0 0 384 384;" xml:space="preserve">
<style type="text/css">
	.st0{fill:#FFFFFF;}
</style>
<g>
	<path class="st0" d="M140.7,384c-7.3-2-14.6-4.1-20.7-8.9c-11.7-9.1-17.9-20.9-18.2-35.7c-0.2-13.1,0-26.2-0.2-39.4
		c0-1.7-1.1-3.9-2.3-4.9c-30.5-24.6-49.2-56.2-55.6-95c-1.2-7.5-1.5-15.1-2.3-23.1c-4.3,0-8.9,0-13.5,0c-9.3-0.1-16.1-6.4-16-15.2
		c0.1-8.6,6.8-14.8,15.9-14.8c109.1,0,218.3,0,327.4,0c9.2,0,15.9,6.2,15.9,14.8c0.1,8.7-6.6,15.1-16,15.2c-4.5,0-9,0-13.6,0
		c-0.6,6.7-0.9,13.3-1.8,19.8c-5.5,39.9-24.2,72.5-55.5,97.8c-2.1,1.7-3.1,3.4-3.1,6.2c0.2,12.1,0.1,24.2,0.1,36.4
		c0,23.9-14.3,41.4-37.6,46.2c-0.5,0.1-0.9,0.4-1.3,0.6C208.6,384,174.7,384,140.7,384z M311.4,177.3c-80.1,0-159.7,0-239.4,0
		c0,2.3-0.2,4.3,0,6.2c0.6,5.5,1.2,10.9,2.1,16.3c7.6,44.1,44.5,83.1,88,93.5c14.2,3.4,28.5,4.3,43.1,3c8.9-0.8,15.8,5.5,16.3,13.9
		c0.5,8.5-5.7,15.2-14.8,16.1c-24.9,2.4-49-1.1-72.1-10.6c-0.8-0.3-1.7-0.5-2.9-0.8c0,7.8,0,15.2,0,22.5c0,10.6,6.1,16.6,16.8,16.6
		c28.7,0,57.4,0,86.1,0c10.9,0,16.9-6,16.9-16.9c0-15.7,0-31.5,0-47.2c0-5.5,2.1-10,6.7-13.1c11.8-7.8,21.6-17.6,30-29
		C303.5,226.9,311.1,203.5,311.4,177.3z"/>
	<path class="st0" d="M329.4,0c1,0.4,2,0.9,3.1,1.3c6.3,2.8,10,9.6,8.7,16.2c-1.3,7-7,12.1-14,12.4c-5.1,0.2-10.2,0-15.7,0
		c0,1.6,0,3,0,4.3c0,22.4,0.1,44.7,0,67.1c0,11.1-10.3,18.4-20.3,14.6c-5.9-2.3-9.6-7.7-9.6-14.7c0-22.2,0-44.5,0-66.7
		c0-1.4,0-2.7,0-4.3c-59.9,0-119.5,0-179.6,0c0,1.3,0,2.7,0,4c0,22.4,0,44.7,0,67.1c0,11-9.9,18.3-19.9,14.8
		c-6.1-2.1-10-7.7-10-14.8c0-22.5,0-45,0-67.5c0-1.1,0-2.2,0-3.9c-4.5,0-8.8,0-13.1,0c-9.1,0-15.2-4.6-16.7-12.4
		c-1.4-7.5,2.8-14,11.2-17.1c0.2-0.1,0.4-0.3,0.6-0.4C145.7,0,237.5,0,329.4,0z"/>
	<path class="st0" d="M161.7,90c-5,0-10,0.1-14.9,0c-8.5-0.2-15-6.7-15-15c0-8.3,6.5-14.9,15-15c10-0.1,19.9-0.1,29.9,0
		c8.5,0.1,15,6.7,15,14.9c0,8.3-6.5,14.8-15,15C171.7,90.1,166.7,90,161.7,90z"/>
</g>
</svg>
