<?xml version="1.0" encoding="utf-8"?>
<!-- Generator: Adobe Illustrator 25.2.1, SVG Export Plug-In . SVG Version: 6.00 Build 0)  -->
<svg version="1.1" id="Layer_1" xmlns="http://www.w3.org/2000/svg" xmlns:xlink="http://www.w3.org/1999/xlink" x="0px" y="0px"
	 viewBox="0 0 384 384" style="enable-background:new 0 0 384 384;" xml:space="preserve">
<style type="text/css">
	.st0{fill:#004B7F;}
</style>
<g>
	<path class="st0" d="M384,223.1c-2,5.2-5,9.4-10.7,11.1c-9.6,2.8-19.1-4.1-19.2-14.1c-0.2-9.9,0-19.7,0-29.6
		c-0.1-31.4-21-55.8-52-60.7c-2.9-0.5-6-0.5-9-0.5c-67.1,0-134.2,0-201.3,0c-34.9,0-61,26.2-61.1,61c0,33.9,0,67.9,0,101.8
		c0,30.2,20,54.4,49.7,60c4.1,0.8,8.4,1,12.7,1c25.9,0.1,51.9,0,77.8,0.1c11,0,18.2,10,14.6,19.9c-2.1,5.8-7.4,9.9-14.1,9.9
		c-29.7,0-59.4,0.7-89-0.7c-38.9-1.8-73.7-34.2-80-72.7c-1-5.8-1.5-11.6-1.5-17.5c-0.1-34.1-0.1-68.1-0.1-102.2
		c0.1-41.8,26.7-76.9,67-87.6c7.5-2,15.5-2.9,23.3-2.9c67.5-0.2,135-0.2,202.4-0.1c45.4,0.1,81.9,31.3,89.5,76.2
		c0.3,1.8,0.7,3.6,1,5.5C384,195.1,384,209.1,384,223.1z"/>
	<path class="st0" d="M384,286.7c-1.5,5.8-2.5,11.7-4.6,17.2c-14,35.5-58.6,54.1-93.6,34.6c-2.2-1.2-3.3-0.6-4.7,0.9
		c-12.9,13-25.9,26-38.9,38.9c-4.3,4.3-9.6,5.8-15.5,4c-5.6-1.8-8.9-5.9-10-11.6c-1.2-5.6,0.9-10.2,4.9-14.1
		c12.4-12.3,24.7-24.7,37.1-37c0.9-0.9,1.9-1.6,3-2.4c-5.2-8-8.8-16-10.5-24.8c-7.6-38.9,22.4-80.5,65.8-79.9
		c8,0.1,14.2,5.7,14.9,13.4c0.7,8-4.3,14.7-12.3,16.2c-4.3,0.8-8.7,0.9-12.9,2c-16.6,4.4-27.5,19.9-26.4,37.1
		c1.2,18.6,13.6,32.3,31.3,34.7c22.5,3.1,41.6-13,42.5-35.6c0.4-8.8,4.8-14.2,12.7-15.5c7.7-1.2,13.6,2.6,16.8,11
		c0.1,0.2,0.3,0.4,0.5,0.5C384,279.7,384,283.2,384,286.7z"/>
	<path class="st0" d="M196.9,0c4.6,0.9,9.3,1.6,13.9,2.8c24.7,6.9,41.8,27.2,44.5,52.6c0.3,2.4,0.6,4.7,0.7,7.1
		c0.3,8.7-6,15.6-14.4,15.9c-8.2,0.4-15.1-6.3-15.4-15c-0.5-13.6-6.6-24-18.8-30.1c-21.8-11.1-47.6,4.4-48.6,29
		c-0.5,11-7.9,17.5-18.1,15.6c-6.9-1.3-12-7-11.8-14.3c0.9-36.4,25.3-59.2,55.4-62.9c1.2-0.1,2.4-0.5,3.6-0.7
		C190.9,0,193.9,0,196.9,0z"/>
	<path class="st0" d="M121.3,219.2c0,8.2,0,15.8,0,23.4c0,9.4-6.3,16.2-14.9,16.2c-8.6,0-15-6.8-15-16.2c0-7.7,0-15.4,0-23.5
		c-5.5,0-10.5,0.1-15.6,0c-7.4-0.2-12.9-4.7-14.7-11.6c-1.6-6.2,1.3-13.2,7.1-16.2c2.2-1.2,5-1.9,7.5-1.9
		c55.4-0.1,110.7-0.1,166.1-0.1c8.1,0,14.4,6,15,13.8c0.6,7.9-5,14.7-13.2,15.9c-1.6,0.2-3.2,0.2-4.8,0.2c-37.5,0-75.1,0-112.6,0
		C124.6,219.2,123.2,219.2,121.3,219.2z"/>
</g>
</svg>
